# xmcd
#
# Track frame offsets: 
#        150
#        11225
#        27967
#        42607
#        55177
#        67782
#
# Disc length: 1098 seconds
#
# Revision: 1
# Processed by: cddbd v1.5.2PL0 Copyright (c) Steve Scherf et al.
# Submitted via: ExactAudioCopy v0.99pb4
#
DISCID=4a044806
DTITLE=Boogie Stuff - Rockin' The Blues
DYEAR=1992
DGENRE=blues
TTITLE0=Take The Rap
TTITLE1=i Can't Do My Homework
TTITLE2=You Can't Love Me
TTITLE3=Down At The Doctors
TTITLE4=You Upset Me
TTITLE5=Bye Bye
EXTD=
EXTT0=
EXTT1=
EXTT2=
EXTT3=
EXTT4=
EXTT5=
PLAYORDER=
